<?xml version="1.0" encoding="UTF-8" standalone="no"?>
<!DOCTYPE svg PUBLIC "-//W3C//DTD SVG 1.1//EN"
 "http://www.w3.org/Graphics/SVG/1.1/DTD/svg11.dtd">
<!-- Generated by graphviz version 14.1.1 (20251213.1925)
 -->
<!-- Title: InheritanceTree Pages: 1 -->
<svg width="229pt" height="789pt"
 viewBox="0.00 0.00 229.00 789.00" xmlns="http://www.w3.org/2000/svg" xmlns:xlink="http://www.w3.org/1999/xlink">
<g id="graph0" class="graph" transform="scale(1 1) rotate(0) translate(4 784.5)">
<title>InheritanceTree</title>
<polygon fill="white" stroke="none" points="-4,4 -4,-784.5 224.75,-784.5 224.75,4 -4,4"/>
<text xml:space="preserve" text-anchor="middle" x="110.38" y="-7.2" font-family="Times New Roman,serif" font-size="14.00">simple_mock &#45; Inheritance Hierarchy</text>
<!-- MOCK_EXPECTATION -->
<g id="node1" class="node">
<title>MOCK_EXPECTATION</title>
<path fill="none" stroke="black" d="M175.75,-60.5C175.75,-60.5 45,-60.5 45,-60.5 39,-60.5 33,-54.5 33,-48.5 33,-48.5 33,-36.5 33,-36.5 33,-30.5 39,-24.5 45,-24.5 45,-24.5 175.75,-24.5 175.75,-24.5 181.75,-24.5 187.75,-30.5 187.75,-36.5 187.75,-36.5 187.75,-48.5 187.75,-48.5 187.75,-54.5 181.75,-60.5 175.75,-60.5"/>
<text xml:space="preserve" text-anchor="middle" x="110.38" y="-37.45" font-family="Times New Roman,serif" font-size="14.00">MOCK_EXPECTATION</text>
</g>
<!-- MOCK_MATCHER -->
<g id="node2" class="node">
<title>MOCK_MATCHER</title>
<path fill="none" stroke="black" d="M163,-132.5C163,-132.5 57.75,-132.5 57.75,-132.5 51.75,-132.5 45.75,-126.5 45.75,-120.5 45.75,-120.5 45.75,-108.5 45.75,-108.5 45.75,-102.5 51.75,-96.5 57.75,-96.5 57.75,-96.5 163,-96.5 163,-96.5 169,-96.5 175,-102.5 175,-108.5 175,-108.5 175,-120.5 175,-120.5 175,-126.5 169,-132.5 163,-132.5"/>
<text xml:space="preserve" text-anchor="middle" x="110.38" y="-109.45" font-family="Times New Roman,serif" font-size="14.00">MOCK_MATCHER</text>
</g>
<!-- MOCK_REQUEST -->
<g id="node3" class="node">
<title>MOCK_REQUEST</title>
<path fill="none" stroke="black" d="M160.75,-204.5C160.75,-204.5 60,-204.5 60,-204.5 54,-204.5 48,-198.5 48,-192.5 48,-192.5 48,-180.5 48,-180.5 48,-174.5 54,-168.5 60,-168.5 60,-168.5 160.75,-168.5 160.75,-168.5 166.75,-168.5 172.75,-174.5 172.75,-180.5 172.75,-180.5 172.75,-192.5 172.75,-192.5 172.75,-198.5 166.75,-204.5 160.75,-204.5"/>
<text xml:space="preserve" text-anchor="middle" x="110.38" y="-181.45" font-family="Times New Roman,serif" font-size="14.00">MOCK_REQUEST</text>
</g>
<!-- MOCK_RESPONSE -->
<g id="node4" class="node">
<title>MOCK_RESPONSE</title>
<path fill="none" stroke="black" d="M164.12,-276.5C164.12,-276.5 56.62,-276.5 56.62,-276.5 50.62,-276.5 44.62,-270.5 44.62,-264.5 44.62,-264.5 44.62,-252.5 44.62,-252.5 44.62,-246.5 50.62,-240.5 56.62,-240.5 56.62,-240.5 164.12,-240.5 164.12,-240.5 170.12,-240.5 176.12,-246.5 176.12,-252.5 176.12,-252.5 176.12,-264.5 176.12,-264.5 176.12,-270.5 170.12,-276.5 164.12,-276.5"/>
<text xml:space="preserve" text-anchor="middle" x="110.38" y="-253.45" font-family="Times New Roman,serif" font-size="14.00">MOCK_RESPONSE</text>
</g>
<!-- MOCK_SERVER -->
<g id="node5" class="node">
<title>MOCK_SERVER</title>
<path fill="none" stroke="black" d="M155.88,-348.5C155.88,-348.5 64.88,-348.5 64.88,-348.5 58.88,-348.5 52.88,-342.5 52.88,-336.5 52.88,-336.5 52.88,-324.5 52.88,-324.5 52.88,-318.5 58.88,-312.5 64.88,-312.5 64.88,-312.5 155.88,-312.5 155.88,-312.5 161.88,-312.5 167.88,-318.5 167.88,-324.5 167.88,-324.5 167.88,-336.5 167.88,-336.5 167.88,-342.5 161.88,-348.5 155.88,-348.5"/>
<text xml:space="preserve" text-anchor="middle" x="110.38" y="-325.45" font-family="Times New Roman,serif" font-size="14.00">MOCK_SERVER</text>
</g>
<!-- MOCK_SERVER_POOL -->
<g id="node6" class="node">
<title>MOCK_SERVER_POOL</title>
<path fill="none" stroke="black" d="M176.88,-420.5C176.88,-420.5 43.88,-420.5 43.88,-420.5 37.88,-420.5 31.88,-414.5 31.88,-408.5 31.88,-408.5 31.88,-396.5 31.88,-396.5 31.88,-390.5 37.88,-384.5 43.88,-384.5 43.88,-384.5 176.88,-384.5 176.88,-384.5 182.88,-384.5 188.88,-390.5 188.88,-396.5 188.88,-396.5 188.88,-408.5 188.88,-408.5 188.88,-414.5 182.88,-420.5 176.88,-420.5"/>
<text xml:space="preserve" text-anchor="middle" x="110.38" y="-397.45" font-family="Times New Roman,serif" font-size="14.00">MOCK_SERVER_POOL</text>
</g>
<!-- MOCK_VERIFIER -->
<g id="node7" class="node">
<title>MOCK_VERIFIER</title>
<path fill="none" stroke="black" d="M160.75,-492.5C160.75,-492.5 60,-492.5 60,-492.5 54,-492.5 48,-486.5 48,-480.5 48,-480.5 48,-468.5 48,-468.5 48,-462.5 54,-456.5 60,-456.5 60,-456.5 160.75,-456.5 160.75,-456.5 166.75,-456.5 172.75,-462.5 172.75,-468.5 172.75,-468.5 172.75,-480.5 172.75,-480.5 172.75,-486.5 166.75,-492.5 160.75,-492.5"/>
<text xml:space="preserve" text-anchor="middle" x="110.38" y="-469.45" font-family="Times New Roman,serif" font-size="14.00">MOCK_VERIFIER</text>
</g>
<!-- SIMPLE_MOCK -->
<g id="node8" class="node">
<title>SIMPLE_MOCK</title>
<path fill="none" stroke="black" d="M154.75,-564.5C154.75,-564.5 66,-564.5 66,-564.5 60,-564.5 54,-558.5 54,-552.5 54,-552.5 54,-540.5 54,-540.5 54,-534.5 60,-528.5 66,-528.5 66,-528.5 154.75,-528.5 154.75,-528.5 160.75,-528.5 166.75,-534.5 166.75,-540.5 166.75,-540.5 166.75,-552.5 166.75,-552.5 166.75,-558.5 160.75,-564.5 154.75,-564.5"/>
<text xml:space="preserve" text-anchor="middle" x="110.38" y="-541.45" font-family="Times New Roman,serif" font-size="14.00">SIMPLE_MOCK</text>
</g>
<!-- ADVERSARIAL_TESTS -->
<g id="node9" class="node">
<title>ADVERSARIAL_TESTS</title>
<path fill="none" stroke="black" d="M177.25,-636.5C177.25,-636.5 43.5,-636.5 43.5,-636.5 37.5,-636.5 31.5,-630.5 31.5,-624.5 31.5,-624.5 31.5,-612.5 31.5,-612.5 31.5,-606.5 37.5,-600.5 43.5,-600.5 43.5,-600.5 177.25,-600.5 177.25,-600.5 183.25,-600.5 189.25,-606.5 189.25,-612.5 189.25,-612.5 189.25,-624.5 189.25,-624.5 189.25,-630.5 183.25,-636.5 177.25,-636.5"/>
<text xml:space="preserve" text-anchor="middle" x="110.38" y="-613.45" font-family="Times New Roman,serif" font-size="14.00">ADVERSARIAL_TESTS</text>
</g>
<!-- TEST_PERSON -->
<g id="node10" class="node">
<title>TEST_PERSON</title>
<path fill="none" stroke="black" d="M151.75,-708.5C151.75,-708.5 69,-708.5 69,-708.5 63,-708.5 57,-702.5 57,-696.5 57,-696.5 57,-684.5 57,-684.5 57,-678.5 63,-672.5 69,-672.5 69,-672.5 151.75,-672.5 151.75,-672.5 157.75,-672.5 163.75,-678.5 163.75,-684.5 163.75,-684.5 163.75,-696.5 163.75,-696.5 163.75,-702.5 157.75,-708.5 151.75,-708.5"/>
<text xml:space="preserve" text-anchor="middle" x="110.38" y="-685.45" font-family="Times New Roman,serif" font-size="14.00">TEST_PERSON</text>
</g>
<!-- TEST_RUNNER -->
<g id="node11" class="node">
<title>TEST_RUNNER</title>
<path fill="none" stroke="black" d="M153.62,-780.5C153.62,-780.5 67.12,-780.5 67.12,-780.5 61.12,-780.5 55.12,-774.5 55.12,-768.5 55.12,-768.5 55.12,-756.5 55.12,-756.5 55.12,-750.5 61.12,-744.5 67.12,-744.5 67.12,-744.5 153.62,-744.5 153.62,-744.5 159.62,-744.5 165.62,-750.5 165.62,-756.5 165.62,-756.5 165.62,-768.5 165.62,-768.5 165.62,-774.5 159.62,-780.5 153.62,-780.5"/>
<text xml:space="preserve" text-anchor="middle" x="110.38" y="-757.45" font-family="Times New Roman,serif" font-size="14.00">TEST_RUNNER</text>
</g>
</g>
</svg>
