<?xml version="1.0" encoding="UTF-8" standalone="no"?>
<!DOCTYPE svg PUBLIC "-//W3C//DTD SVG 1.1//EN"
 "http://www.w3.org/Graphics/SVG/1.1/DTD/svg11.dtd">
<!-- Generated by graphviz version 14.1.1 (20251213.1925)
 -->
<!-- Title: Dependencies Pages: 1 -->
<svg width="354pt" height="501pt"
 viewBox="0.00 0.00 354.00 501.00" xmlns="http://www.w3.org/2000/svg" xmlns:xlink="http://www.w3.org/1999/xlink">
<g id="graph0" class="graph" transform="scale(1 1) rotate(0) translate(4 496.5)">
<title>Dependencies</title>
<polygon fill="white" stroke="none" points="-4,4 -4,-496.5 349.5,-496.5 349.5,4 -4,4"/>
<text xml:space="preserve" text-anchor="middle" x="172.75" y="-7.2" font-family="Times New Roman,serif" font-size="14.00">simple_mock &#45; Dependencies</text>
<!-- simple_mock -->
<g id="node1" class="node">
<title>simple_mock</title>
<polygon fill="lightblue" stroke="black" points="90.25,-276.5 0,-276.5 0,-240.5 90.25,-240.5 90.25,-276.5"/>
<text xml:space="preserve" text-anchor="middle" x="45.12" y="-253.45" font-family="Times New Roman,serif" font-size="14.00">simple_mock</text>
</g>
<!-- simple_factory -->
<g id="node2" class="node">
<title>simple_factory</title>
<polygon fill="lightblue" stroke="black" points="338.75,-492.5 241,-492.5 241,-456.5 338.75,-456.5 338.75,-492.5"/>
<text xml:space="preserve" text-anchor="middle" x="289.88" y="-469.45" font-family="Times New Roman,serif" font-size="14.00">simple_factory</text>
</g>
<!-- simple_mock&#45;&gt;simple_factory -->
<g id="edge1" class="edge">
<title>simple_mock&#45;&gt;simple_factory</title>
<path fill="none" stroke="black" stroke-dasharray="5,2" d="M22.5,-276.92C22.5,-329.15 22.5,-474.5 22.5,-474.5 22.5,-474.5 229.01,-474.5 229.01,-474.5"/>
<polygon fill="black" stroke="black" points="229.01,-478 239.01,-474.5 229.01,-471 229.01,-478"/>
</g>
<!-- simple_json -->
<g id="node3" class="node">
<title>simple_json</title>
<polygon fill="lightblue" stroke="black" points="330.88,-420.5 248.88,-420.5 248.88,-384.5 330.88,-384.5 330.88,-420.5"/>
<text xml:space="preserve" text-anchor="middle" x="289.88" y="-397.45" font-family="Times New Roman,serif" font-size="14.00">simple_json</text>
</g>
<!-- simple_mock&#45;&gt;simple_json -->
<g id="edge2" class="edge">
<title>simple_mock&#45;&gt;simple_json</title>
<path fill="none" stroke="black" stroke-dasharray="5,2" d="M45.5,-276.74C45.5,-315.49 45.5,-402.5 45.5,-402.5 45.5,-402.5 236.91,-402.5 236.91,-402.5"/>
<polygon fill="black" stroke="black" points="236.91,-406 246.91,-402.5 236.91,-399 236.91,-406"/>
</g>
<!-- simple_mml -->
<g id="node4" class="node">
<title>simple_mml</title>
<polygon fill="lightblue" stroke="black" points="332.75,-348.5 247,-348.5 247,-312.5 332.75,-312.5 332.75,-348.5"/>
<text xml:space="preserve" text-anchor="middle" x="289.88" y="-325.45" font-family="Times New Roman,serif" font-size="14.00">simple_mml</text>
</g>
<!-- simple_mock&#45;&gt;simple_mml -->
<g id="edge3" class="edge">
<title>simple_mock&#45;&gt;simple_mml</title>
<path fill="none" stroke="black" stroke-dasharray="5,2" d="M67.5,-276.67C67.5,-298 67.5,-330.5 67.5,-330.5 67.5,-330.5 235.22,-330.5 235.22,-330.5"/>
<polygon fill="black" stroke="black" points="235.22,-334 245.22,-330.5 235.22,-327 235.22,-334"/>
</g>
<!-- simple_reflection -->
<g id="node5" class="node">
<title>simple_reflection</title>
<polygon fill="lightblue" stroke="black" points="345.5,-276.5 234.25,-276.5 234.25,-240.5 345.5,-240.5 345.5,-276.5"/>
<text xml:space="preserve" text-anchor="middle" x="289.88" y="-253.45" font-family="Times New Roman,serif" font-size="14.00">simple_reflection</text>
</g>
<!-- simple_mock&#45;&gt;simple_reflection -->
<g id="edge4" class="edge">
<title>simple_mock&#45;&gt;simple_reflection</title>
<path fill="none" stroke="black" stroke-dasharray="5,2" d="M90.59,-258.5C90.59,-258.5 222.4,-258.5 222.4,-258.5"/>
<polygon fill="black" stroke="black" points="222.4,-262 232.4,-258.5 222.4,-255 222.4,-262"/>
</g>
<!-- base -->
<g id="node6" class="node">
<title>base</title>
<polygon fill="lightgray" stroke="black" points="316.88,-204.5 262.88,-204.5 262.88,-168.5 316.88,-168.5 316.88,-204.5"/>
<text xml:space="preserve" text-anchor="middle" x="289.88" y="-181.45" font-family="Times New Roman,serif" font-size="14.00">base</text>
</g>
<!-- simple_mock&#45;&gt;base -->
<g id="edge5" class="edge">
<title>simple_mock&#45;&gt;base</title>
<path fill="none" stroke="black" stroke-dasharray="5,2" d="M67.5,-240.33C67.5,-219 67.5,-186.5 67.5,-186.5 67.5,-186.5 251.09,-186.5 251.09,-186.5"/>
<polygon fill="black" stroke="black" points="251.09,-190 261.09,-186.5 251.09,-183 251.09,-190"/>
</g>
<!-- time -->
<g id="node7" class="node">
<title>time</title>
<polygon fill="lightgray" stroke="black" points="316.88,-132.5 262.88,-132.5 262.88,-96.5 316.88,-96.5 316.88,-132.5"/>
<text xml:space="preserve" text-anchor="middle" x="289.88" y="-109.45" font-family="Times New Roman,serif" font-size="14.00">time</text>
</g>
<!-- simple_mock&#45;&gt;time -->
<g id="edge6" class="edge">
<title>simple_mock&#45;&gt;time</title>
<path fill="none" stroke="black" stroke-dasharray="5,2" d="M45.5,-240.26C45.5,-201.51 45.5,-114.5 45.5,-114.5 45.5,-114.5 251.28,-114.5 251.28,-114.5"/>
<polygon fill="black" stroke="black" points="251.28,-118 261.28,-114.5 251.28,-111 251.28,-118"/>
</g>
<!-- testing -->
<g id="node8" class="node">
<title>testing</title>
<polygon fill="lightgray" stroke="black" points="316.88,-60.5 262.88,-60.5 262.88,-24.5 316.88,-24.5 316.88,-60.5"/>
<text xml:space="preserve" text-anchor="middle" x="289.88" y="-37.45" font-family="Times New Roman,serif" font-size="14.00">testing</text>
</g>
<!-- simple_mock&#45;&gt;testing -->
<g id="edge7" class="edge">
<title>simple_mock&#45;&gt;testing</title>
<path fill="none" stroke="black" stroke-dasharray="5,2" d="M22.5,-240.08C22.5,-187.85 22.5,-42.5 22.5,-42.5 22.5,-42.5 251.25,-42.5 251.25,-42.5"/>
<polygon fill="black" stroke="black" points="251.25,-46 261.25,-42.5 251.25,-39 251.25,-46"/>
</g>
</g>
</svg>
